<svg xmlns="http://www.w3.org/2000/svg" width="20" height="17" viewBox="0 0 20 17">
    <g fill="none" fill-rule="evenodd">
        <g fill="#0D0D0D" fill-rule="nonzero">
            <g>
                <g>
                    <path d="M26.944 15.048c.013.178.013.356.013.533 0 5.419-4.125 11.663-11.663 11.663-2.322 0-4.48-.673-6.294-1.84.33.038.647.05.99.05 1.916 0 3.68-.647 5.089-1.751-1.802-.038-3.313-1.218-3.833-2.843.254.038.508.064.774.064.368 0 .736-.051 1.079-.14-1.878-.38-3.287-2.03-3.287-4.023v-.05c.546.304 1.18.495 1.853.52-1.104-.736-1.827-1.992-1.827-3.414 0-.761.203-1.46.558-2.068 2.018 2.487 5.05 4.111 8.452 4.289-.064-.305-.102-.622-.102-.939 0-2.259 1.828-4.099 4.1-4.099 1.18 0 2.245.495 2.994 1.294.926-.177 1.815-.52 2.602-.99-.305.952-.952 1.752-1.802 2.26.824-.09 1.624-.318 2.36-.635-.558.812-1.256 1.535-2.056 2.12z" transform="translate(-348 -4025) translate(0 3720) translate(339 294)"/>
                </g>
            </g>
        </g>
    </g>
</svg>
