<svg xmlns="http://www.w3.org/2000/svg" width="20" height="20" viewBox="0 0 20 20">
    <g fill="none" fill-rule="evenodd">
        <g fill="#0D0D0D" fill-rule="nonzero">
            <g>
                <g>
                    <path d="M18.688 9C13.346 9 9 13.346 9 18.688c0 5.341 4.346 9.687 9.688 9.687 5.341 0 9.687-4.346 9.687-9.688 0-5.341-4.346-9.687-9.688-9.687zm6.405 4.467c1.152 1.409 1.85 3.202 1.868 5.155-.273-.058-3.008-.613-5.762-.266-.224-.549-.436-1.031-.727-1.626 3.06-1.25 4.446-3.027 4.62-3.263zm-.92-.957c-.15.213-1.395 1.887-4.337 2.99-1.356-2.492-2.859-4.538-3.088-4.845 2.624-.632 5.39.05 7.425 1.856zm-9.003-1.298c.218.299 1.696 2.348 3.067 4.785-3.87 1.028-7.28 1.013-7.65 1.008.537-2.567 2.268-4.701 4.583-5.793zM10.413 18.7c0-.084.002-.169.004-.253.362.008 4.372.06 8.504-1.177.237.463.463.934.671 1.404-2.992.843-5.71 3.263-7.052 5.559-1.321-1.467-2.127-3.408-2.127-5.533zm3.195 6.528c.865-1.767 3.21-4.048 6.546-5.186 1.162 3.02 1.643 5.55 1.766 6.275-2.66 1.133-5.86.823-8.312-1.089zm9.703.332c-.085-.504-.525-2.926-1.608-5.9 2.593-.415 4.871.264 5.155.354-.37 2.302-1.69 4.29-3.547 5.546z" transform="translate(-301 -4023) translate(0 3720) translate(292 294)"/>
                </g>
            </g>
        </g>
    </g>
</svg>
