<svg height="512" viewBox="0 0 512 512" width="512" xmlns="http://www.w3.org/2000/svg"><g id="Outline"><path d="m199.99 496a31.79 31.79 0 0 1 -22.628-9.372l-88-88a32.037 32.037 0 0 1 0-45.255l88.005-88a32 32 0 0 1 45.257 45.255l-33.38 33.372h154.756a24.028 24.028 0 0 0 24-24v-272a32 32 0 0 1 64 0v272a88.1 88.1 0 0 1 -88 88h-154.756l33.374 33.372a32 32 0 0 1 -22.628 54.628zm0-224a15.892 15.892 0 0 0 -11.314 4.687l-88 88a16.018 16.018 0 0 0 0 22.627l88 88a16 16 0 1 0 22.624-22.628l-47.031-47.029a8 8 0 0 1 5.661-13.657h174.07a72.083 72.083 0 0 0 72-72v-272a16 16 0 0 0 -32 0v272a40.046 40.046 0 0 1 -40 40h-174.07a8 8 0 0 1 -5.657-13.657l47.032-47.03a16 16 0 0 0 -11.315-27.313z"/></g></svg>