<svg xmlns="http://www.w3.org/2000/svg" width="39" height="37" viewBox="0 0 39 37">
    <g fill="none" fill-rule="evenodd">
        <g fill-rule="nonzero">
            <g>
                <g>
                    <path fill="#D1E7FF" d="M35.888 13.846v19.661c0 1.324-1.148 2.398-2.564 2.398H5.13c-1.415 0-2.563-1.074-2.563-2.398 0-18.587-.002-15.105.006-19.66h33.316z" transform="translate(-610 -947) translate(156 710) translate(454 237)"/>
                    <path fill="#B9DCFF" d="M35.888 13.846v4.541c0 .983-.843 1.797-1.893 1.8H4.458c-1.05-.004-1.892-.818-1.892-1.8 0-1.31-.001-.406.006-4.54h33.316z" transform="translate(-610 -947) translate(156 710) translate(454 237)"/>
                    <path fill="#E8F3FF" d="M25.715 25.19v10.715H12.739V25.189c0-1.324 1.147-2.398 2.563-2.398h7.85c1.415 0 2.563 1.074 2.563 2.398z" transform="translate(-610 -947) translate(156 710) translate(454 237)"/>
                    <path fill="#B9DCFF" d="M37.81 13.846c0 2.4-2.08 4.346-4.646 4.346s-4.646-1.946-4.646-4.346c0 2.4-2.08 4.346-4.646 4.346-2.565 0-4.645-1.946-4.645-4.346 0 2.4-2.08 4.346-4.646 4.346s-4.646-1.946-4.646-4.346c-.004 2.384-2.102 4.346-4.646 4.346-2.54 0-4.641-1.959-4.645-4.346 0-3.777-.012-3.545.028-3.718.038-.17-.228.432 3.802-8.27.203-.438.666-.722 1.176-.722h27.153c.51 0 .973.284 1.176.722 4.034 8.709 3.764 8.1 3.803 8.27.039.173.028-.063.028 3.718z" transform="translate(-610 -947) translate(156 710) translate(454 237)"/>
                    <path fill="#A2D0FF" d="M37.81 13.846c0 2.4-2.08 4.346-4.646 4.346s-4.646-1.946-4.646-4.346c0 2.4-2.08 4.346-4.645 4.346-2.566 0-4.646-1.946-4.646-4.346 0 2.4-2.08 4.346-4.646 4.346s-4.646-1.946-4.646-4.346c-.004 2.384-2.102 4.346-4.646 4.346-2.54 0-4.641-1.96-4.645-4.346-.007-3.798-.006-3.57.028-3.718h37.11c.039.173.028-.063.028 3.718z" transform="translate(-610 -947) translate(156 710) translate(454 237)"/>
                    <path fill="#D1E7FF" d="M32.457 4.34C24.321 3.29 16.11 4.634 9.468 9.316c-.747.527-1.659.81-2.595.81H.672c.038-.17-.228.433 3.802-8.269.203-.438.666-.722 1.176-.722h27.154c.51 0 .972.283 1.175.722l.179.385c.5 1.08-.454 2.257-1.7 2.096z" transform="translate(-610 -947) translate(156 710) translate(454 237)"/>
                    <path fill="#007FFC" d="M36.528 20.843v12.664c0 1.653-1.437 2.998-3.204 2.998H5.13c-1.767 0-3.204-1.345-3.204-2.998V20.844c0-.332.287-.6.641-.6.354 0 .64.268.64.6v12.663c0 .992.863 1.799 1.923 1.799h6.969V25.19c0-1.653 1.437-2.998 3.204-2.998h7.85c1.766 0 3.203 1.345 3.203 2.998v7.718c0 .331-.286.6-.64.6-.354 0-.641-.269-.641-.6V25.19c0-.992-.863-1.799-1.922-1.799h-7.85c-1.06 0-1.923.807-1.923 1.799v10.116h5.207v-9.442c0-.331.287-.6.64-.6.355 0 .642.269.642.6v9.442h13.456c1.06 0 1.923-.807 1.923-1.799V20.844c0-.332.286-.6.64-.6.354 0 .641.268.641.6zM4.168 10.128c0 .33.287.6.64.6 34.865 0 33.137.058 33.392-.125.133-.096.22-.234.244-.392.035-.241.265.351-4.212-9.314-.101-.219-.332-.36-.587-.36H4.809c-.256 0-.487.141-.588.36L.056 9.89c-.074.16-.053-.093-.053 3.958.004 2.726 2.376 4.945 5.286 4.945 2.001 0 3.747-1.049 4.645-2.59 2.004 3.446 7.284 3.45 9.293.002 2.006 3.445 7.284 3.446 9.291 0 .897 1.54 2.643 2.588 4.646 2.588 2.915 0 5.286-2.219 5.286-4.946 0-.331-.286-.6-.64-.6-.354 0-.641.269-.641.6 0 2.066-1.797 3.747-4.005 3.747s-4.005-1.681-4.005-3.747c0-.331-.287-.6-.64-.6-.355 0-.642.269-.642.6 0 2.066-1.796 3.747-4.005 3.747-2.208 0-4.005-1.681-4.005-3.747 0-.331-.287-.6-.64-.6-.354 0-.641.269-.641.6 0 2.066-1.797 3.747-4.005 3.747-2.16 0-4.005-1.624-4.005-3.777 0-.331-.287-.6-.641-.6-.354 0-.64.269-.64.6 0 2.135-1.835 3.777-4.006 3.777-2.205 0-4.001-1.681-4.005-3.747v-3.594L5.23 1.735h27.995l3.61 7.793H4.809c-.354 0-.641.269-.641.6z" transform="translate(-610 -947) translate(156 710) translate(454 237)"/>
                </g>
            </g>
        </g>
    </g>
</svg>
